<mxfile host="localhost" modified="2020-05-25T16:42:03.272Z" agent="5.0 (Macintosh; Intel Mac OS X 10_14_0) AppleWebKit/537.36 (KHTML, like Gecko) Code/1.45.0 Chrome/78.0.3904.130 Electron/7.2.4 Safari/537.36" etag="EHayocmz4lHEAnk2s6fn" version="13.0.9">
    <diagram id="6hGFLwfOUW9BJ-s0fimq" name="js">
        <mxGraphModel dx="642" dy="566" grid="1" gridSize="10" guides="1" tooltips="1" connect="1" arrows="1" fold="1" page="1" pageScale="1" pageWidth="827" pageHeight="1169" math="0" shadow="0">
            <root>
                <mxCell id="0"/>
                <mxCell id="1" parent="0"/>
                <mxCell id="2" value="&lt;table cellpadding=&quot;4&quot; cellspacing=&quot;0&quot; border=&quot;1&quot; style=&quot;font-size: 1em ; width: 100% ; height: 100%&quot;&gt;&lt;tbody&gt;&lt;tr&gt;&lt;th&gt;elements&lt;/th&gt;&lt;th&gt;contents&lt;/th&gt;&lt;/tr&gt;&lt;tr&gt;&lt;td&gt;basic syntax&lt;/td&gt;&lt;td&gt;&lt;ol&gt;&lt;li&gt;[&lt;font face=&quot;Courier New&quot;&gt;// ...., /* ... */] &lt;/font&gt;- comments&lt;/li&gt;&lt;/ol&gt;&lt;/td&gt;&lt;/tr&gt;&lt;tr&gt;&lt;td&gt;data types&lt;/td&gt;&lt;td&gt;&lt;h3&gt;String&lt;/h3&gt;&lt;div&gt;&lt;font face=&quot;Courier New&quot;&gt;let myVariable = &quot;Bob&quot;&lt;/font&gt;&lt;/div&gt;&lt;div&gt;&lt;font face=&quot;Courier New&quot;&gt;&lt;br&gt;&lt;/font&gt;&lt;/div&gt;&lt;h3&gt;Number&lt;/h3&gt;&lt;div&gt;&lt;font face=&quot;Courier New&quot;&gt;let myVariable = 10&lt;/font&gt;&lt;/div&gt;&lt;div&gt;&lt;font face=&quot;Courier New&quot;&gt;&lt;br&gt;&lt;/font&gt;&lt;/div&gt;&lt;h3&gt;Boolean:&lt;font face=&quot;Courier New&quot;&gt; [true, false]&lt;/font&gt;&lt;/h3&gt;&lt;div&gt;&lt;font face=&quot;Courier New&quot;&gt;let myVariable = true&lt;/font&gt;&lt;/div&gt;&lt;div&gt;&lt;font face=&quot;Courier New&quot;&gt;&lt;br&gt;&lt;/font&gt;&lt;/div&gt;&lt;h3&gt;Array&lt;/h3&gt;&lt;div&gt;&lt;font face=&quot;Courier New&quot;&gt;let myVariable = [&quot;Bob&quot;, &quot;Alan&quot;]&lt;/font&gt;&lt;/div&gt;&lt;div&gt;&lt;font face=&quot;Courier New&quot;&gt;myVariable[1]&lt;/font&gt;&lt;/div&gt;&lt;div&gt;&lt;font face=&quot;Courier New&quot;&gt;&lt;br&gt;&lt;/font&gt;&lt;/div&gt;&lt;h3&gt;Object&lt;/h3&gt;&lt;/td&gt;&lt;/tr&gt;&lt;tr&gt;&lt;td&gt;operators&lt;/td&gt;&lt;td&gt;&lt;h3&gt;Arithmetic&lt;/h3&gt;&lt;div&gt;&lt;ol&gt;&lt;li&gt;&lt;font face=&quot;Courier New&quot;&gt;+ - * /&lt;/font&gt;&lt;/li&gt;&lt;/ol&gt;&lt;h3&gt;assignment&lt;/h3&gt;&lt;/div&gt;&lt;div&gt;&lt;ol&gt;&lt;li&gt;&lt;font face=&quot;Courier New&quot;&gt;=&lt;/font&gt;&lt;/li&gt;&lt;/ol&gt;&lt;div&gt;&lt;font face=&quot;Courier New&quot;&gt;Equality&lt;/font&gt;&lt;/div&gt;&lt;/div&gt;&lt;div&gt;&lt;ol&gt;&lt;li&gt;&lt;font face=&quot;Courier New&quot;&gt;===&lt;/font&gt;&lt;/li&gt;&lt;li&gt;&lt;font face=&quot;Courier New&quot;&gt;!, !==&lt;/font&gt;&lt;/li&gt;&lt;/ol&gt;&lt;/div&gt;&lt;/td&gt;&lt;/tr&gt;&lt;tr&gt;&lt;td&gt;variable&lt;/td&gt;&lt;td&gt;&lt;ol&gt;&lt;li&gt;&lt;font face=&quot;Courier New&quot;&gt;var&lt;/font&gt;&lt;/li&gt;&lt;li&gt;&lt;font face=&quot;Courier New&quot;&gt;let&lt;/font&gt;&lt;/li&gt;&lt;/ol&gt;&lt;/td&gt;&lt;/tr&gt;&lt;tr&gt;&lt;td&gt;code structure&lt;/td&gt;&lt;td&gt;&lt;h3&gt;If&lt;/h3&gt;&lt;div&gt;&lt;font face=&quot;Courier New&quot;&gt;if () {&lt;/font&gt;&lt;/div&gt;&lt;div&gt;&lt;font face=&quot;Courier New&quot;&gt;...&lt;/font&gt;&lt;/div&gt;&lt;div&gt;&lt;font face=&quot;Courier New&quot;&gt;} else {&lt;/font&gt;&lt;/div&gt;&lt;div&gt;&lt;font face=&quot;Courier New&quot;&gt;...&lt;/font&gt;&lt;/div&gt;&lt;div&gt;&lt;font face=&quot;Courier New&quot;&gt;}&lt;/font&gt;&lt;/div&gt;&lt;div&gt;&lt;font face=&quot;Courier New&quot;&gt;&lt;br&gt;&lt;/font&gt;&lt;/div&gt;&lt;h3&gt;function&lt;/h3&gt;&lt;div&gt;&lt;font face=&quot;Courier New&quot;&gt;function add(a, b) {&lt;/font&gt;&lt;/div&gt;&lt;div&gt;&lt;font face=&quot;Courier New&quot;&gt;&amp;nbsp; &amp;nbsp; let result = a + b&lt;/font&gt;&lt;/div&gt;&lt;div&gt;&lt;font face=&quot;Courier New&quot;&gt;&amp;nbsp; &amp;nbsp; return result&lt;/font&gt;&lt;/div&gt;&lt;div&gt;&lt;font face=&quot;Courier New&quot;&gt;}&lt;/font&gt;&lt;/div&gt;&lt;/td&gt;&lt;/tr&gt;&lt;/tbody&gt;&lt;/table&gt; " style="verticalAlign=top;align=left;overflow=fill;fontSize=12;fontFamily=Helvetica;html=1;direction=east;" vertex="1" parent="1">
                    <mxGeometry x="40" y="40" width="450" height="980" as="geometry"/>
                </mxCell>
            </root>
        </mxGraphModel>
    </diagram>
</mxfile>